<svg width="1175" height="180" viewBox="0 0 1175 180" fill="none" xmlns="http://www.w3.org/2000/svg" role="img" aria-labelledby="title desc">
  <title id="title">Floral line art banner</title>
  <desc id="desc">A soft gray botanical line drawing inspired by magnolia branches.</desc>
  <rect width="1175" height="180" fill="#fbfaf8"/>
  <g stroke="#6f6f6f" stroke-width="2.2" stroke-linecap="round" stroke-linejoin="round" opacity="0.88">
    <path d="M40 143 C118 117, 188 112, 260 104 C350 94, 420 71, 505 73 C595 75, 676 105, 756 93 C843 80, 914 42, 1027 28 C1078 22, 1128 19, 1162 17"/>
    <path d="M321 101 C343 77, 363 51, 380 22"/>
    <path d="M400 76 C421 56, 444 44, 470 39"/>
    <path d="M742 94 C770 70, 796 48, 825 24"/>
    <path d="M894 48 C927 31, 966 20, 1004 13"/>
    <path d="M990 33 C1025 49, 1060 51, 1102 45"/>
  </g>
  <g stroke="#5f5f5f" stroke-width="2" stroke-linecap="round" stroke-linejoin="round" fill="none" opacity="0.9">
    <path d="M90 126 C72 108, 73 86, 92 76 C113 65, 135 79, 136 103 C137 127, 113 141, 90 126Z"/>
    <path d="M94 124 C106 111, 115 98, 128 83"/>
    <path d="M83 91 C69 82, 57 71, 49 56"/>
    <path d="M55 58 C48 48, 53 36, 64 34 C75 33, 82 43, 78 54 C74 65, 64 66, 55 58Z"/>
    <path d="M138 105 C158 95, 170 80, 177 61"/>
    <path d="M176 62 C181 50, 194 46, 202 54 C211 63, 205 76, 193 78 C184 79, 178 72, 176 62Z"/>
    <path d="M420 72 C395 49, 401 18, 431 10 C463 2, 488 29, 480 61 C472 94, 443 96, 420 72Z"/>
    <path d="M423 70 C441 51, 454 34, 472 14"/>
    <path d="M404 24 C385 15, 370 4, 360 -14"/>
    <path d="M480 60 C506 48, 529 32, 548 9"/>
    <path d="M544 12 C550 -2, 566 -7, 577 3 C588 14, 579 30, 563 30 C553 30, 546 23, 544 12Z"/>
    <path d="M596 95 C570 67, 577 27, 611 15 C646 3, 682 29, 681 68 C680 103, 620 119, 596 95Z"/>
    <path d="M603 93 C622 70, 641 44, 663 20"/>
    <path d="M583 38 C560 26, 545 10, 538 -12"/>
    <path d="M680 69 C715 59, 742 42, 765 15"/>
    <path d="M853 45 C819 19, 825 -28, 865 -40 C909 -54, 946 -17, 936 28 C927 68, 881 69, 853 45Z"/>
    <path d="M860 42 C884 21, 901 -5, 927 -32"/>
    <path d="M834 -11 C810 -22, 790 -38, 779 -61"/>
    <path d="M936 27 C968 15, 990 -5, 1010 -34"/>
    <path d="M976 70 C951 42, 958 4, 990 -8 C1023 -20, 1057 8, 1056 44 C1055 81, 1000 94, 976 70Z"/>
    <path d="M982 68 C1001 48, 1018 22, 1040 -3"/>
    <path d="M960 14 C939 3, 924 -12, 915 -34"/>
    <path d="M1056 45 C1084 35, 1111 19, 1134 -3"/>
  </g>
  <g stroke="#777" stroke-width="1.8" stroke-linecap="round" stroke-linejoin="round" fill="none" opacity="0.78">
    <path d="M230 105 C224 91, 231 78, 245 76 C260 74, 270 88, 265 102 C260 116, 237 120, 230 105Z"/>
    <path d="M312 92 C302 77, 306 59, 322 54 C339 49, 354 64, 349 81 C344 99, 322 106, 312 92Z"/>
    <path d="M719 94 C704 79, 705 55, 722 45 C741 35, 762 49, 761 72 C760 94, 736 111, 719 94Z"/>
    <path d="M1095 45 C1088 30, 1095 17, 1110 14 C1124 11, 1136 23, 1132 38 C1127 55, 1103 60, 1095 45Z"/>
  </g>
</svg>
